<mxfile host="app.diagrams.net" modified="2020-11-24T02:42:30.042Z" agent="5.0 (Windows NT 6.1; Win64; x64) AppleWebKit/537.36 (KHTML, like Gecko) Chrome/86.0.4240.111 Safari/537.36" etag="3uqriicJwlDYe8-uxKPO" version="13.10.0" type="github">
  <diagram id="C5RBs43oDa-KdzZeNtuy" name="Page-1">
    <mxGraphModel dx="852" dy="404" grid="1" gridSize="10" guides="1" tooltips="1" connect="1" arrows="1" fold="1" page="1" pageScale="1" pageWidth="827" pageHeight="1169" math="0" shadow="0">
      <root>
        <mxCell id="WIyWlLk6GJQsqaUBKTNV-0" />
        <mxCell id="WIyWlLk6GJQsqaUBKTNV-1" parent="WIyWlLk6GJQsqaUBKTNV-0" />
        <mxCell id="ckRirgDe8WmQ6R_1A1b7-1" value="&lt;p style=&quot;margin: 0px ; margin-top: 4px ; text-align: center&quot;&gt;&lt;i&gt;&amp;lt;&amp;lt;Interface&amp;gt;&amp;gt;&lt;/i&gt;&lt;br&gt;&lt;b&gt;NamespaceHandler&lt;/b&gt;&lt;br&gt;&lt;/p&gt;&lt;p style=&quot;margin: 0px ; margin-left: 4px&quot;&gt;&lt;br&gt;&lt;/p&gt;&lt;hr size=&quot;1&quot;&gt;&lt;p style=&quot;margin: 0px ; margin-left: 4px&quot;&gt;+ init(): void&lt;br&gt;+ parse(Element, ParserContext): BeanDefinition&lt;/p&gt;&lt;p style=&quot;margin: 0px ; margin-left: 4px&quot;&gt;+ decorate(Node,BeanDefinitionHolder,ParserContext):BeanDefinitionHolder&lt;/p&gt;" style="verticalAlign=top;align=left;overflow=fill;fontSize=12;fontFamily=Helvetica;html=1;" parent="WIyWlLk6GJQsqaUBKTNV-1" vertex="1">
          <mxGeometry x="319" y="50" width="431" height="110" as="geometry" />
        </mxCell>
        <mxCell id="ckRirgDe8WmQ6R_1A1b7-6" style="rounded=0;orthogonalLoop=1;jettySize=auto;html=1;entryX=0.381;entryY=1.009;entryDx=0;entryDy=0;entryPerimeter=0;dashed=1;endArrow=block;endFill=0;" parent="WIyWlLk6GJQsqaUBKTNV-1" source="ckRirgDe8WmQ6R_1A1b7-2" target="ckRirgDe8WmQ6R_1A1b7-1" edge="1">
          <mxGeometry relative="1" as="geometry" />
        </mxCell>
        <mxCell id="ckRirgDe8WmQ6R_1A1b7-2" value="NamespaceHandlerSupport" style="swimlane;fontStyle=1;align=center;verticalAlign=top;childLayout=stackLayout;horizontal=1;startSize=26;horizontalStack=0;resizeParent=1;resizeParentMax=0;resizeLast=0;collapsible=1;marginBottom=0;" parent="WIyWlLk6GJQsqaUBKTNV-1" vertex="1">
          <mxGeometry x="50" y="200" width="280" height="140" as="geometry" />
        </mxCell>
        <mxCell id="ckRirgDe8WmQ6R_1A1b7-3" value="- parsers: HashMap&#xa;-  decorators : HashMap&#xa;- attributeDecorators : HashMap" style="text;strokeColor=none;fillColor=none;align=left;verticalAlign=top;spacingLeft=4;spacingRight=4;overflow=hidden;rotatable=0;points=[[0,0.5],[1,0.5]];portConstraint=eastwest;" parent="ckRirgDe8WmQ6R_1A1b7-2" vertex="1">
          <mxGeometry y="26" width="280" height="50" as="geometry" />
        </mxCell>
        <mxCell id="ckRirgDe8WmQ6R_1A1b7-4" value="" style="line;strokeWidth=1;fillColor=none;align=left;verticalAlign=middle;spacingTop=-1;spacingLeft=3;spacingRight=3;rotatable=0;labelPosition=right;points=[];portConstraint=eastwest;" parent="ckRirgDe8WmQ6R_1A1b7-2" vertex="1">
          <mxGeometry y="76" width="280" height="8" as="geometry" />
        </mxCell>
        <mxCell id="ckRirgDe8WmQ6R_1A1b7-5" value="+ parse(Element,ParserContext): BeanDefinition&#xa;- registerBeanDefinitionParser(...)&#xa;- findParserForElement(..)" style="text;strokeColor=none;fillColor=none;align=left;verticalAlign=top;spacingLeft=4;spacingRight=4;overflow=hidden;rotatable=0;points=[[0,0.5],[1,0.5]];portConstraint=eastwest;" parent="ckRirgDe8WmQ6R_1A1b7-2" vertex="1">
          <mxGeometry y="84" width="280" height="56" as="geometry" />
        </mxCell>
        <mxCell id="ckRirgDe8WmQ6R_1A1b7-11" style="edgeStyle=none;rounded=0;orthogonalLoop=1;jettySize=auto;html=1;entryX=0.468;entryY=1.063;entryDx=0;entryDy=0;entryPerimeter=0;endArrow=block;endFill=0;" parent="WIyWlLk6GJQsqaUBKTNV-1" source="ckRirgDe8WmQ6R_1A1b7-7" target="ckRirgDe8WmQ6R_1A1b7-5" edge="1">
          <mxGeometry relative="1" as="geometry" />
        </mxCell>
        <mxCell id="ckRirgDe8WmQ6R_1A1b7-7" value="ContextNamespaceHandler" style="swimlane;fontStyle=1;align=center;verticalAlign=top;childLayout=stackLayout;horizontal=1;startSize=26;horizontalStack=0;resizeParent=1;resizeParentMax=0;resizeLast=0;collapsible=1;marginBottom=0;" parent="WIyWlLk6GJQsqaUBKTNV-1" vertex="1">
          <mxGeometry x="80" y="390" width="200" height="56" as="geometry" />
        </mxCell>
        <mxCell id="ckRirgDe8WmQ6R_1A1b7-10" value="+init():void" style="text;strokeColor=none;fillColor=none;align=left;verticalAlign=top;spacingLeft=4;spacingRight=4;overflow=hidden;rotatable=0;points=[[0,0.5],[1,0.5]];portConstraint=eastwest;" parent="ckRirgDe8WmQ6R_1A1b7-7" vertex="1">
          <mxGeometry y="26" width="200" height="30" as="geometry" />
        </mxCell>
        <mxCell id="ckRirgDe8WmQ6R_1A1b7-13" value="&lt;p style=&quot;margin: 0px ; margin-top: 4px ; text-align: center&quot;&gt;&lt;i&gt;&amp;lt;&amp;lt;Interface&amp;gt;&amp;gt;&lt;/i&gt;&lt;br&gt;&lt;b&gt;BeanDefinitionParser&lt;/b&gt;&lt;br&gt;&lt;/p&gt;&lt;p style=&quot;margin: 0px ; margin-left: 4px&quot;&gt;&lt;br&gt;&lt;/p&gt;&lt;hr size=&quot;1&quot;&gt;&lt;p style=&quot;margin: 0px ; margin-left: 4px&quot;&gt;+ parse(Element,ParserContext):&amp;nbsp;BeanDefinition&lt;br&gt;&lt;/p&gt;" style="verticalAlign=top;align=left;overflow=fill;fontSize=12;fontFamily=Helvetica;html=1;" parent="WIyWlLk6GJQsqaUBKTNV-1" vertex="1">
          <mxGeometry x="200" y="560" width="270" height="100" as="geometry" />
        </mxCell>
        <mxCell id="ckRirgDe8WmQ6R_1A1b7-18" style="edgeStyle=none;rounded=0;orthogonalLoop=1;jettySize=auto;html=1;entryX=0.381;entryY=0.99;entryDx=0;entryDy=0;entryPerimeter=0;endArrow=block;endFill=0;dashed=1;" parent="WIyWlLk6GJQsqaUBKTNV-1" source="ckRirgDe8WmQ6R_1A1b7-14" target="ckRirgDe8WmQ6R_1A1b7-13" edge="1">
          <mxGeometry relative="1" as="geometry" />
        </mxCell>
        <mxCell id="ckRirgDe8WmQ6R_1A1b7-14" value="AbstractBeanDefinitionParser" style="swimlane;fontStyle=1;align=center;verticalAlign=top;childLayout=stackLayout;horizontal=1;startSize=26;horizontalStack=0;resizeParent=1;resizeParentMax=0;resizeLast=0;collapsible=1;marginBottom=0;" parent="WIyWlLk6GJQsqaUBKTNV-1" vertex="1">
          <mxGeometry x="30" y="720" width="430" height="140" as="geometry" />
        </mxCell>
        <mxCell id="ckRirgDe8WmQ6R_1A1b7-15" value="- constString ...: String" style="text;strokeColor=none;fillColor=none;align=left;verticalAlign=top;spacingLeft=4;spacingRight=4;overflow=hidden;rotatable=0;points=[[0,0.5],[1,0.5]];portConstraint=eastwest;" parent="ckRirgDe8WmQ6R_1A1b7-14" vertex="1">
          <mxGeometry y="26" width="430" height="26" as="geometry" />
        </mxCell>
        <mxCell id="ckRirgDe8WmQ6R_1A1b7-16" value="" style="line;strokeWidth=1;fillColor=none;align=left;verticalAlign=middle;spacingTop=-1;spacingLeft=3;spacingRight=3;rotatable=0;labelPosition=right;points=[];portConstraint=eastwest;" parent="ckRirgDe8WmQ6R_1A1b7-14" vertex="1">
          <mxGeometry y="52" width="430" height="8" as="geometry" />
        </mxCell>
        <mxCell id="ckRirgDe8WmQ6R_1A1b7-17" value="+ parse(Element,ParserContext): BeanDefinition&#xa;- resolveId(Element,AbstractBeanDefinition,ParserContext)&#xa;- registerBeanDefinition(BeanDefinitionHolder,BeanDefinitionRegistry):void&#xa;+ parseInternal(Element,ParserContext):AbstractBeanDefinition" style="text;strokeColor=none;fillColor=none;align=left;verticalAlign=top;spacingLeft=4;spacingRight=4;overflow=hidden;rotatable=0;points=[[0,0.5],[1,0.5]];portConstraint=eastwest;" parent="ckRirgDe8WmQ6R_1A1b7-14" vertex="1">
          <mxGeometry y="60" width="430" height="80" as="geometry" />
        </mxCell>
        <mxCell id="ckRirgDe8WmQ6R_1A1b7-19" value="AbstractSingleBeanDefinitionParser" style="swimlane;fontStyle=1;align=center;verticalAlign=top;childLayout=stackLayout;horizontal=1;startSize=26;horizontalStack=0;resizeParent=1;resizeParentMax=0;resizeLast=0;collapsible=1;marginBottom=0;" parent="WIyWlLk6GJQsqaUBKTNV-1" vertex="1">
          <mxGeometry x="520" y="750" width="360" height="110" as="geometry" />
        </mxCell>
        <mxCell id="ckRirgDe8WmQ6R_1A1b7-22" value="- parseInternal(Element,ParserContext): AbstractBeanDefinition&#xa;- getParentName(Element):String&#xa;- getBeanClass(Element):String&#xa;- doParse(Element,ParserContext,BeanDefinitionBuilder):void&#xa;- doParse(Element,BeanDefinitionBuilder):void" style="text;strokeColor=none;fillColor=none;align=left;verticalAlign=top;spacingLeft=4;spacingRight=4;overflow=hidden;rotatable=0;points=[[0,0.5],[1,0.5]];portConstraint=eastwest;" parent="ckRirgDe8WmQ6R_1A1b7-19" vertex="1">
          <mxGeometry y="26" width="360" height="84" as="geometry" />
        </mxCell>
        <mxCell id="ckRirgDe8WmQ6R_1A1b7-24" style="edgeStyle=none;rounded=0;orthogonalLoop=1;jettySize=auto;html=1;endArrow=block;endFill=0;" parent="WIyWlLk6GJQsqaUBKTNV-1" source="ckRirgDe8WmQ6R_1A1b7-22" target="ckRirgDe8WmQ6R_1A1b7-17" edge="1">
          <mxGeometry relative="1" as="geometry" />
        </mxCell>
        <mxCell id="Wor3dRtvU9UIdLGZJN9g-5" style="edgeStyle=none;rounded=0;orthogonalLoop=1;jettySize=auto;html=1;entryX=0.475;entryY=1.024;entryDx=0;entryDy=0;entryPerimeter=0;endArrow=block;endFill=0;" edge="1" parent="WIyWlLk6GJQsqaUBKTNV-1" source="Wor3dRtvU9UIdLGZJN9g-1" target="ckRirgDe8WmQ6R_1A1b7-22">
          <mxGeometry relative="1" as="geometry" />
        </mxCell>
        <mxCell id="Wor3dRtvU9UIdLGZJN9g-1" value="AbstractPropertyLoadingBeanDefinitionParser" style="swimlane;fontStyle=1;align=center;verticalAlign=top;childLayout=stackLayout;horizontal=1;startSize=26;horizontalStack=0;resizeParent=1;resizeParentMax=0;resizeLast=0;collapsible=1;marginBottom=0;fillColor=none;" vertex="1" parent="WIyWlLk6GJQsqaUBKTNV-1">
          <mxGeometry x="550" y="950" width="280" height="52" as="geometry" />
        </mxCell>
        <mxCell id="Wor3dRtvU9UIdLGZJN9g-4" value="+ doParse(Element): void" style="text;strokeColor=none;fillColor=none;align=left;verticalAlign=top;spacingLeft=4;spacingRight=4;overflow=hidden;rotatable=0;points=[[0,0.5],[1,0.5]];portConstraint=eastwest;" vertex="1" parent="Wor3dRtvU9UIdLGZJN9g-1">
          <mxGeometry y="26" width="280" height="26" as="geometry" />
        </mxCell>
        <mxCell id="Wor3dRtvU9UIdLGZJN9g-6" value="AnnotationConfigBeanDefinitionParser" style="swimlane;fontStyle=1;align=center;verticalAlign=top;childLayout=stackLayout;horizontal=1;startSize=26;horizontalStack=0;resizeParent=1;resizeParentMax=0;resizeLast=0;collapsible=1;marginBottom=0;fillColor=none;" vertex="1" parent="WIyWlLk6GJQsqaUBKTNV-1">
          <mxGeometry x="370" y="1040" width="230" height="52" as="geometry" />
        </mxCell>
        <mxCell id="Wor3dRtvU9UIdLGZJN9g-9" value="+ parse(Element,ParserContext)" style="text;strokeColor=none;fillColor=none;align=left;verticalAlign=top;spacingLeft=4;spacingRight=4;overflow=hidden;rotatable=0;points=[[0,0.5],[1,0.5]];portConstraint=eastwest;" vertex="1" parent="Wor3dRtvU9UIdLGZJN9g-6">
          <mxGeometry y="26" width="230" height="26" as="geometry" />
        </mxCell>
        <mxCell id="Wor3dRtvU9UIdLGZJN9g-11" value="MBeanExportBeanDefinitionParser" style="swimlane;fontStyle=1;align=center;verticalAlign=top;childLayout=stackLayout;horizontal=1;startSize=26;horizontalStack=0;resizeParent=1;resizeParentMax=0;resizeLast=0;collapsible=1;marginBottom=0;fillColor=none;" vertex="1" parent="WIyWlLk6GJQsqaUBKTNV-1">
          <mxGeometry x="370" y="1110" width="230" height="52" as="geometry" />
        </mxCell>
        <mxCell id="Wor3dRtvU9UIdLGZJN9g-12" value="+ parse(Element,ParserContext)" style="text;strokeColor=none;fillColor=none;align=left;verticalAlign=top;spacingLeft=4;spacingRight=4;overflow=hidden;rotatable=0;points=[[0,0.5],[1,0.5]];portConstraint=eastwest;" vertex="1" parent="Wor3dRtvU9UIdLGZJN9g-11">
          <mxGeometry y="26" width="230" height="26" as="geometry" />
        </mxCell>
        <mxCell id="Wor3dRtvU9UIdLGZJN9g-14" style="edgeStyle=orthogonalEdgeStyle;rounded=0;orthogonalLoop=1;jettySize=auto;html=1;endArrow=block;endFill=0;entryX=0.607;entryY=0.923;entryDx=0;entryDy=0;entryPerimeter=0;" edge="1" parent="WIyWlLk6GJQsqaUBKTNV-1" source="Wor3dRtvU9UIdLGZJN9g-9" target="Wor3dRtvU9UIdLGZJN9g-4">
          <mxGeometry relative="1" as="geometry">
            <mxPoint x="720" y="1010" as="targetPoint" />
            <Array as="points">
              <mxPoint x="720" y="1079" />
            </Array>
          </mxGeometry>
        </mxCell>
        <mxCell id="Wor3dRtvU9UIdLGZJN9g-18" style="edgeStyle=orthogonalEdgeStyle;rounded=0;orthogonalLoop=1;jettySize=auto;html=1;endArrow=block;endFill=0;" edge="1" parent="WIyWlLk6GJQsqaUBKTNV-1" source="Wor3dRtvU9UIdLGZJN9g-15">
          <mxGeometry relative="1" as="geometry">
            <mxPoint x="720" y="1000" as="targetPoint" />
          </mxGeometry>
        </mxCell>
        <mxCell id="Wor3dRtvU9UIdLGZJN9g-15" value="LoadTimeWeaverBeanDefinitionParser" style="swimlane;fontStyle=1;align=center;verticalAlign=top;childLayout=stackLayout;horizontal=1;startSize=26;horizontalStack=0;resizeParent=1;resizeParentMax=0;resizeLast=0;collapsible=1;marginBottom=0;fillColor=none;" vertex="1" parent="WIyWlLk6GJQsqaUBKTNV-1">
          <mxGeometry x="370" y="1169" width="230" height="52" as="geometry" />
        </mxCell>
        <mxCell id="Wor3dRtvU9UIdLGZJN9g-16" value="+ parse(Element,ParserContext)" style="text;strokeColor=none;fillColor=none;align=left;verticalAlign=top;spacingLeft=4;spacingRight=4;overflow=hidden;rotatable=0;points=[[0,0.5],[1,0.5]];portConstraint=eastwest;" vertex="1" parent="Wor3dRtvU9UIdLGZJN9g-15">
          <mxGeometry y="26" width="230" height="26" as="geometry" />
        </mxCell>
        <mxCell id="Wor3dRtvU9UIdLGZJN9g-17" style="edgeStyle=orthogonalEdgeStyle;rounded=0;orthogonalLoop=1;jettySize=auto;html=1;endArrow=block;endFill=0;" edge="1" parent="WIyWlLk6GJQsqaUBKTNV-1" source="Wor3dRtvU9UIdLGZJN9g-12">
          <mxGeometry relative="1" as="geometry">
            <mxPoint x="720" y="1000" as="targetPoint" />
          </mxGeometry>
        </mxCell>
        <mxCell id="Wor3dRtvU9UIdLGZJN9g-23" style="edgeStyle=orthogonalEdgeStyle;rounded=0;orthogonalLoop=1;jettySize=auto;html=1;endArrow=block;endFill=0;" edge="1" parent="WIyWlLk6GJQsqaUBKTNV-1" source="Wor3dRtvU9UIdLGZJN9g-19">
          <mxGeometry relative="1" as="geometry">
            <mxPoint x="720" y="1000" as="targetPoint" />
          </mxGeometry>
        </mxCell>
        <mxCell id="Wor3dRtvU9UIdLGZJN9g-19" value="MBeanServerBeanDefinitionParser" style="swimlane;fontStyle=1;align=center;verticalAlign=top;childLayout=stackLayout;horizontal=1;startSize=26;horizontalStack=0;resizeParent=1;resizeParentMax=0;resizeLast=0;collapsible=1;marginBottom=0;fillColor=none;" vertex="1" parent="WIyWlLk6GJQsqaUBKTNV-1">
          <mxGeometry x="370" y="1230" width="230" height="52" as="geometry" />
        </mxCell>
        <mxCell id="Wor3dRtvU9UIdLGZJN9g-21" value="SpringConfiguredBeanDefinitionParser" style="swimlane;fontStyle=1;align=center;verticalAlign=top;childLayout=stackLayout;horizontal=1;startSize=26;horizontalStack=0;resizeParent=1;resizeParentMax=0;resizeLast=0;collapsible=1;marginBottom=0;fillColor=none;" vertex="1" parent="WIyWlLk6GJQsqaUBKTNV-1">
          <mxGeometry x="370" y="1290" width="230" height="52" as="geometry" />
        </mxCell>
        <mxCell id="Wor3dRtvU9UIdLGZJN9g-22" value="+ parse(Element,ParserContext)" style="text;strokeColor=none;fillColor=none;align=left;verticalAlign=top;spacingLeft=4;spacingRight=4;overflow=hidden;rotatable=0;points=[[0,0.5],[1,0.5]];portConstraint=eastwest;" vertex="1" parent="Wor3dRtvU9UIdLGZJN9g-21">
          <mxGeometry y="26" width="230" height="26" as="geometry" />
        </mxCell>
        <mxCell id="Wor3dRtvU9UIdLGZJN9g-20" value="+ parse(Element,ParserContext)" style="text;strokeColor=none;fillColor=none;align=left;verticalAlign=top;spacingLeft=4;spacingRight=4;overflow=hidden;rotatable=0;points=[[0,0.5],[1,0.5]];portConstraint=eastwest;" vertex="1" parent="WIyWlLk6GJQsqaUBKTNV-1">
          <mxGeometry x="380" y="1256" width="230" height="26" as="geometry" />
        </mxCell>
        <mxCell id="Wor3dRtvU9UIdLGZJN9g-24" style="edgeStyle=orthogonalEdgeStyle;rounded=0;orthogonalLoop=1;jettySize=auto;html=1;endArrow=block;endFill=0;" edge="1" parent="WIyWlLk6GJQsqaUBKTNV-1" source="Wor3dRtvU9UIdLGZJN9g-22">
          <mxGeometry relative="1" as="geometry">
            <mxPoint x="720" y="1000" as="targetPoint" />
          </mxGeometry>
        </mxCell>
        <mxCell id="Wor3dRtvU9UIdLGZJN9g-25" value="ComponentScanBeanDefinitionParser" style="swimlane;fontStyle=1;align=center;verticalAlign=top;childLayout=stackLayout;horizontal=1;startSize=26;horizontalStack=0;resizeParent=1;resizeParentMax=0;resizeLast=0;collapsible=1;marginBottom=0;fillColor=none;" vertex="1" parent="WIyWlLk6GJQsqaUBKTNV-1">
          <mxGeometry x="570" y="559" width="230" height="52" as="geometry" />
        </mxCell>
        <mxCell id="Wor3dRtvU9UIdLGZJN9g-26" value="+ parse(Element,ParserContext)" style="text;strokeColor=none;fillColor=none;align=left;verticalAlign=top;spacingLeft=4;spacingRight=4;overflow=hidden;rotatable=0;points=[[0,0.5],[1,0.5]];portConstraint=eastwest;" vertex="1" parent="Wor3dRtvU9UIdLGZJN9g-25">
          <mxGeometry y="26" width="230" height="26" as="geometry" />
        </mxCell>
        <mxCell id="Wor3dRtvU9UIdLGZJN9g-27" style="rounded=0;orthogonalLoop=1;jettySize=auto;html=1;entryX=1;entryY=0.5;entryDx=0;entryDy=0;endArrow=block;endFill=0;" edge="1" parent="WIyWlLk6GJQsqaUBKTNV-1" source="Wor3dRtvU9UIdLGZJN9g-26" target="ckRirgDe8WmQ6R_1A1b7-13">
          <mxGeometry relative="1" as="geometry" />
        </mxCell>
        <mxCell id="Wor3dRtvU9UIdLGZJN9g-30" style="edgeStyle=none;rounded=0;orthogonalLoop=1;jettySize=auto;html=1;entryX=0.456;entryY=0;entryDx=0;entryDy=0;entryPerimeter=0;endArrow=block;endFill=0;" edge="1" parent="WIyWlLk6GJQsqaUBKTNV-1" source="Wor3dRtvU9UIdLGZJN9g-28" target="ckRirgDe8WmQ6R_1A1b7-19">
          <mxGeometry relative="1" as="geometry" />
        </mxCell>
        <mxCell id="Wor3dRtvU9UIdLGZJN9g-28" value="PropertyPlaceholderBeanDefinitionParser" style="swimlane;fontStyle=1;align=center;verticalAlign=top;childLayout=stackLayout;horizontal=1;startSize=26;horizontalStack=0;resizeParent=1;resizeParentMax=0;resizeLast=0;collapsible=1;marginBottom=0;fillColor=none;" vertex="1" parent="WIyWlLk6GJQsqaUBKTNV-1">
          <mxGeometry x="570" y="640" width="230" height="52" as="geometry" />
        </mxCell>
        <mxCell id="Wor3dRtvU9UIdLGZJN9g-29" value="+ parse(Element,ParserContext)" style="text;strokeColor=none;fillColor=none;align=left;verticalAlign=top;spacingLeft=4;spacingRight=4;overflow=hidden;rotatable=0;points=[[0,0.5],[1,0.5]];portConstraint=eastwest;" vertex="1" parent="Wor3dRtvU9UIdLGZJN9g-28">
          <mxGeometry y="26" width="230" height="26" as="geometry" />
        </mxCell>
        <mxCell id="Wor3dRtvU9UIdLGZJN9g-31" value="&lt;p style=&quot;margin: 0px ; margin-top: 4px ; text-align: center&quot;&gt;&lt;i&gt;&amp;lt;&amp;lt;Interface&amp;gt;&amp;gt;&lt;/i&gt;&lt;br&gt;&lt;b&gt;BeanDefinitionParser&lt;/b&gt;&lt;br&gt;&lt;/p&gt;&lt;p style=&quot;margin: 0px ; margin-left: 4px&quot;&gt;&lt;br&gt;&lt;/p&gt;&lt;hr size=&quot;1&quot;&gt;&lt;p style=&quot;margin: 0px ; margin-left: 4px&quot;&gt;+ parse(Element,ParserContext):&amp;nbsp;BeanDefinition&lt;br&gt;&lt;/p&gt;" style="verticalAlign=top;align=left;overflow=fill;fontSize=12;fontFamily=Helvetica;html=1;" vertex="1" parent="WIyWlLk6GJQsqaUBKTNV-1">
          <mxGeometry x="399.5" y="320" width="270.5" height="80" as="geometry" />
        </mxCell>
        <mxCell id="Wor3dRtvU9UIdLGZJN9g-33" value="1..N&lt;br&gt;parsers" style="text;html=1;strokeColor=none;fillColor=none;align=center;verticalAlign=middle;whiteSpace=wrap;rounded=0;" vertex="1" parent="WIyWlLk6GJQsqaUBKTNV-1">
          <mxGeometry x="315" y="370" width="40" height="20" as="geometry" />
        </mxCell>
        <mxCell id="Wor3dRtvU9UIdLGZJN9g-34" style="edgeStyle=none;rounded=0;orthogonalLoop=1;jettySize=auto;html=1;entryX=-0.002;entryY=0.838;entryDx=0;entryDy=0;entryPerimeter=0;endArrow=open;endFill=0;exitX=1;exitY=0;exitDx=0;exitDy=0;exitPerimeter=0;" edge="1" parent="WIyWlLk6GJQsqaUBKTNV-1" source="ckRirgDe8WmQ6R_1A1b7-10" target="Wor3dRtvU9UIdLGZJN9g-31">
          <mxGeometry relative="1" as="geometry" />
        </mxCell>
      </root>
    </mxGraphModel>
  </diagram>
</mxfile>
